<svg width="43" height="43" viewBox="0 0 43 43" fill="none" xmlns="http://www.w3.org/2000/svg">
  <g clip-path="url(#clip0_1834_6971)">
    <path fill-rule="evenodd" clip-rule="evenodd"
      d="M9.40704 22.5364C10.8371 26.7024 7.07037 30.2508 3.86787 32.3125H3.86609L3.82528 32.3214C2.20363 33.3717 -0.883548 35.5097 3.13865 35.7989C5.02787 35.8933 6.90603 35.4596 8.56251 34.5463C8.65798 34.4981 8.78252 34.4373 8.92808 34.3663C9.94567 33.8698 11.9906 32.8719 12.315 32.1688C12.2199 32.3759 12.1156 32.5971 12.0058 32.83C10.9427 35.0859 9.36243 38.4392 10.5284 40.6585C12.095 43.6694 16.1101 38.0202 16.9085 36.8492C17.0089 36.7028 17.1515 36.4643 17.3272 36.1703C18.4038 34.3694 20.7247 30.4872 22.2011 32.9459C22.9056 34.0995 23.1276 35.4745 23.35 36.8523C23.6312 38.594 23.9131 40.34 25.1712 41.6486C27.907 44.4944 29.4471 40.1227 29.4471 37.9723C29.4487 37.8212 29.4437 37.6056 29.4377 37.3457C29.3899 35.2621 29.2767 30.3334 31.9363 32.9867C32.3275 33.3778 32.7592 33.8829 33.2263 34.4294C34.8844 36.3692 36.9877 38.8299 39.2994 38.5614C41.8915 38.274 39.1092 34.7805 37.6653 32.9675C37.3174 32.5306 37.0471 32.1913 36.9486 32.018C37.3957 32.3746 41.4232 34.871 41.4232 32.8075C41.4341 31.6037 39.9511 30.5454 38.7951 29.7206C38.4467 29.472 38.128 29.2446 37.8889 29.0408C34.0743 25.7886 34.8372 22.5648 36.5494 18.3847C39.5461 11.1458 34.6172 2.8477 27.467 0.690229C19.7402 -1.62693 11.1955 2.02268 8.32121 9.72289C7.59319 11.6834 7.28199 13.7742 7.40748 15.8618C7.51145 17.637 8.10578 19.1467 8.72013 20.7072C8.95493 21.3036 9.19265 21.9075 9.40704 22.5364ZM23.0651 19.2782C25.8731 19.2782 28.1494 17.0019 28.1494 14.194C28.1494 11.386 25.8731 9.10967 23.0651 9.10967C20.2571 9.10967 17.9808 11.386 17.9808 14.194C17.9808 17.0019 20.2571 19.2782 23.0651 19.2782Z"
      fill="#4854C2" />
  </g>
  <defs>
    <clipPath id="clip0_1834_6971">
      <rect width="42.5818" height="42.5818" fill="white" />
    </clipPath>
  </defs>
</svg>